<?xml version="1.0" standalone="no"?>
<!DOCTYPE svg PUBLIC "-//W3C//DTD SVG 20010904//EN"
 "http://www.w3.org/TR/2001/REC-SVG-20010904/DTD/svg10.dtd">
<svg version="1.0" xmlns="http://www.w3.org/2000/svg"
 width="512.000000pt" height="512.000000pt" viewBox="0 0 512.000000 512.000000"
 preserveAspectRatio="xMidYMid meet">
<metadata>
Created by potrace 1.11, written by Peter Selinger 2001-2013
</metadata>
<g transform="translate(0.000000,512.000000) scale(0.100000,-0.100000)"
fill="#000000" stroke="none">
<path d="M660 4904 c-217 -57 -386 -229 -447 -454 -17 -61 -18 -179 -18 -1885
0 -2025 -5 -1862 67 -2012 48 -100 178 -228 278 -276 150 -71 31 -67 2010 -67
1585 0 1789 2 1857 16 234 48 411 214 480 449 17 56 18 173 21 1860 3 2016 7
1890 -69 2045 -77 157 -231 281 -404 325 -87 22 -3690 22 -3775 -1z m2001
-1714 c168 -31 305 -166 354 -348 25 -90 30 -252 12 -357 -45 -254 -219 -414
-453 -415 -117 0 -214 47 -276 135 -18 25 -35 45 -40 45 -4 0 -8 -126 -8 -280
l0 -280 -85 0 -85 0 0 745 0 746 83 -3 82 -3 5 -85 5 -85 32 46 c86 124 209
170 374 139z m720 -27 c8 -10 20 -29 28 -43 32 -56 157 -269 186 -318 24 -39
35 -49 42 -40 10 12 31 49 185 316 l60 102 100 0 c55 0 98 -4 96 -8 -2 -7
-298 -466 -332 -516 -13 -19 -13 -20 174 -306 87 -135 155 -249 151 -253 -4
-4 -48 -7 -97 -5 l-89 3 -125 202 c-69 112 -128 203 -131 203 -3 0 -59 -87
-124 -192 -65 -106 -125 -199 -134 -205 -18 -15 -177 -18 -186 -4 -5 8 32 71
130 221 96 148 195 309 195 319 0 6 -24 48 -53 94 -30 45 -70 109 -91 142 -20
33 -70 112 -111 175 -41 63 -75 118 -75 123 0 4 42 7 93 7 77 0 96 -3 108 -17z"/>
<path d="M2454 3024 c-127 -47 -204 -192 -204 -384 0 -199 76 -346 203 -395
62 -23 175 -17 233 13 161 82 228 359 143 588 -25 66 -86 137 -143 166 -53 27
-175 34 -232 12z"/>
</g>
</svg>
